<?xml version="1.0" encoding="UTF-8"?>
<svg xmlns="http://www.w3.org/2000/svg" version="1.1" viewBox="0 0 22 22">
  <defs>
    <style>
      .cls-1, .cls-2, .cls-3 {
        stroke: #000;
      }

      .cls-1, .cls-2, .cls-3, .cls-4 {
        stroke-miterlimit: 10;
      }

      .cls-1, .cls-4 {
        stroke-width: .2px;
      }

      .cls-3 {
        stroke-width: .8px;
      }

      .cls-4 {
        stroke: #ccc;
      }

      .cls-4, .cls-5 {
        fill: #ccc;
      }
    </style>
  </defs>
  <!-- Generator: Adobe Illustrator 28.7.1, SVG Export Plug-In . SVG Version: 1.2.0 Build 142)  -->
  <g>
    <g id="Layer_1">
      <rect class="cls-5" x="-115.3" y="2.3" width="22" height="22"/>
      <rect class="cls-5" x="-115.3" y="-22.2" width="22" height="22"/>
      <rect class="cls-5" x="-115.3" y="102.9" width="22" height="22"/>
      <rect class="cls-5" x="-115.3" y="77.6" width="22" height="22"/>
      <rect class="cls-5" x="-115.3" y="152.7" width="22" height="22"/>
      <rect class="cls-5" x="-115.3" y="127.9" width="22" height="22"/>
      <rect class="cls-5" x="-115.3" y="27.9" width="22" height="22"/>
      <g>
        <path class="cls-1" d="M-109.6,43.6c0-.1-.1-.4-.2-.7-.5.6-1.2.8-1.9.8s-1.2-.2-1.6-.6-.6-.9-.6-1.4.3-1.3.8-1.6c.5-.4,1.3-.6,2.3-.6h1.1v-.5c0-.4-.1-.7-.4-1-.2-.2-.6-.4-1.1-.4s-.8.1-1,.3c-.3.2-.4.5-.4.8h-1.2c0-.3.1-.7.4-1s.6-.6,1-.8c.4-.2.9-.3,1.4-.3.8,0,1.4.2,1.8.6s.7.9.7,1.6v3.1c0,.6,0,1.1.2,1.5h0c0,.1-1.2.1-1.2.1ZM-111.5,42.8c.4,0,.7,0,1-.3.3-.2.6-.4.7-.7v-1.4h-.9c-1.4,0-2.1.4-2.1,1.3s.1.6.4.9c.2.2.6.3.9.3Z"/>
        <rect x="-108" y="32.2" width="7.3" height="13.4"/>
        <path class="cls-4" d="M-102,37.7c-.5-.6-1.1-.9-1.9-.9s-1.5.3-1.9.9v-3.6h-1.2v9.6h1.1v-.8c.5.6,1.2.9,2,.9s1.4-.3,1.9-.9c.5-.6.7-1.5.7-2.5h0c0-1.2-.2-2-.7-2.7ZM-102.9,42.1c-.3.4-.7.6-1.3.6s-1.3-.4-1.7-1.1v-2.9c.3-.7.9-1.1,1.7-1.1s1,.2,1.3.6c.3.4.5,1,.5,1.8s-.2,1.5-.5,1.9Z"/>
        <path class="cls-1" d="M-97.4,42.8c.4,0,.8-.1,1.1-.4.3-.3.5-.6.5-.9h1.1c0,.4-.2.8-.4,1.1-.2.4-.6.6-1,.8-.4.2-.8.3-1.3.3-.9,0-1.7-.3-2.2-.9-.5-.6-.8-1.5-.8-2.5v-.2c0-.7.1-1.3.4-1.8.2-.5.6-.9,1-1.2s1-.4,1.6-.4,1.4.2,1.9.7.8,1,.8,1.8h-1.1c0-.4-.2-.8-.5-1.1-.3-.3-.7-.4-1.1-.4s-1,.2-1.4.6c-.3.4-.5,1-.5,1.8v.2c0,.8.2,1.4.5,1.8.3.4.8.6,1.4.6Z"/>
      </g>
      <path class="cls-1" d="M-102.4,6.6l1.7.7-1,2.3h3.8v1.8h-4.5l-1.5,3.6h6.1v1.8h-6.9l-1.3,3.1-1.7-.7,1-2.3h-3.8v-1.8h4.6l1.5-3.6h-6.1v-1.8h6.9l1.3-3.1Z"/>
      <rect class="cls-5" x="-115.3" y="77.6" width="22" height="22"/>
      <g>
        <rect x="-114.6" y="81.9" width="14.2" height="13.4"/>
        <path class="cls-4" d="M-109.4,93.2c0-.1-.1-.4-.2-.7-.5.6-1.2.8-1.9.8s-1.2-.2-1.6-.6-.6-.9-.6-1.4.3-1.3.8-1.6c.5-.4,1.3-.6,2.3-.6h1.1v-.5c0-.4-.1-.7-.4-1-.2-.2-.6-.4-1.1-.4s-.8.1-1,.3c-.3.2-.4.5-.4.8h-1.2c0-.3.1-.7.4-1s.6-.6,1-.8c.4-.2.9-.3,1.4-.3.8,0,1.4.2,1.8.6s.7.9.7,1.6v3.1c0,.6,0,1.1.2,1.5h0c0,.1-1.2.1-1.2.1ZM-111.3,92.3c.4,0,.7,0,1-.3.3-.2.6-.4.7-.7v-1.4h-.9c-1.4,0-2.1.4-2.1,1.3s.1.6.4.9c.2.2.6.3.9.3Z"/>
        <path class="cls-4" d="M-101.8,87.2c-.5-.6-1.1-.9-1.9-.9s-1.5.3-1.9.9v-3.6h-1.2v9.6h1.1v-.8c.5.6,1.2.9,2,.9s1.4-.3,1.9-.9c.5-.6.7-1.5.7-2.5h0c0-1.2-.2-2-.7-2.7ZM-102.8,91.7c-.3.4-.7.6-1.3.6s-1.3-.4-1.7-1.1v-2.9c.3-.7.9-1.1,1.7-1.1s1,.2,1.3.6c.3.4.5,1,.5,1.8s-.2,1.5-.5,1.9Z"/>
        <path class="cls-1" d="M-96.8,92.4c.4,0,.8-.1,1.1-.4.3-.3.5-.6.5-.9h1.1c0,.4-.2.8-.4,1.1-.2.4-.6.6-1,.8-.4.2-.8.3-1.3.3-.9,0-1.7-.3-2.2-.9-.5-.6-.8-1.5-.8-2.5v-.2c0-.7.1-1.3.4-1.8.2-.5.6-.9,1-1.2s1-.4,1.6-.4,1.4.2,1.9.7.8,1,.8,1.8h-1.1c0-.4-.2-.8-.5-1.1-.3-.3-.7-.4-1.1-.4s-1,.2-1.4.6c-.3.4-.5,1-.5,1.8v.2c0,.8.2,1.4.5,1.8.3.4.8.6,1.4.6Z"/>
      </g>
      <path class="cls-1" d="M-109.8,143.2c0-.1-.1-.4-.2-.7-.5.6-1.2.8-1.9.8s-1.2-.2-1.6-.6-.6-.9-.6-1.4.3-1.3.8-1.6c.5-.4,1.3-.6,2.3-.6h1.1v-.5c0-.4-.1-.7-.4-1-.2-.2-.6-.4-1.1-.4s-.8.1-1,.3c-.3.2-.4.5-.4.8h-1.2c0-.3.1-.7.4-1s.6-.6,1-.8c.4-.2.9-.3,1.4-.3.8,0,1.4.2,1.8.6s.7.9.7,1.6v3.1c0,.6,0,1.1.2,1.5h0c0,.1-1.2.1-1.2.1ZM-111.7,142.3c.4,0,.7,0,1-.3.3-.2.6-.4.7-.7v-1.4h-.9c-1.4,0-2.1.4-2.1,1.3s.1.6.4.9c.2.2.6.3.9.3Z"/>
      <path class="cls-1" d="M-102.1,137.2c-.5-.6-1.1-.9-1.9-.9s-1.5.3-1.9.9v-3.6h-1.2v9.6h1.1v-.8c.5.6,1.2.9,2,.9s1.4-.3,1.9-.9c.5-.6.7-1.5.7-2.5h0c0-1.2-.2-2-.7-2.7ZM-103.1,141.7c-.3.4-.7.6-1.3.6s-1.3-.4-1.7-1.1v-2.9c.3-.7.9-1.1,1.7-1.1s1,.2,1.3.6c.3.4.5,1,.5,1.8s-.2,1.5-.5,1.9Z"/>
      <path class="cls-1" d="M-97.6,142.4c.4,0,.8-.1,1.1-.4.3-.3.5-.6.5-.9h1.1c0,.4-.2.8-.4,1.1-.2.4-.6.6-1,.8-.4.2-.8.3-1.3.3-.9,0-1.7-.3-2.2-.9-.5-.6-.8-1.5-.8-2.5v-.2c0-.7.1-1.3.4-1.8.2-.5.6-.9,1-1.2s1-.4,1.6-.4,1.4.2,1.9.7.8,1,.8,1.8h-1.1c0-.4-.2-.8-.5-1.1-.3-.3-.7-.4-1.1-.4s-1,.2-1.4.6c-.3.4-.5,1-.5,1.8v.2c0,.8.2,1.4.5,1.8.3.4.8.6,1.4.6Z"/>
      <rect x="-110.8" y="-15" width="13.1" height="2.2"/>
      <rect x="-110.8" y="-9.6" width="13.1" height="2.2"/>
      <rect x="-111" y="162.8" width="13.4" height="2.5"/>
      <g>
        <path class="cls-1" d="M-111.7,110.1c-.1-.3-.3-.5-.5-.6-.2-.2-.5-.2-.9-.2s-.6,0-.9.2c-.2.2-.4.4-.6.6-.1.3-.2.5-.2.8v.4c0,.3,0,.6.2.8.1.3.3.5.6.6.2.2.5.2.9.2s.6,0,.9-.2c.2-.2.4-.4.5-.6s.2-.5.2-.8v-.4c0-.3,0-.6-.2-.8ZM-112.4,111.4c0,.2,0,.4-.2.6s-.3.3-.6.3-.5,0-.6-.3-.2-.4-.2-.6v-.4c0-.2,0-.4.2-.6.1-.2.3-.3.6-.3s.5,0,.6.3c.1.2.2.4.2.6v.4Z"/>
        <path class="cls-1" d="M-107.6,114.7c-.1-.3-.3-.5-.5-.6-.2-.2-.5-.2-.9-.2s-.6,0-.9.2-.4.4-.6.6c-.1.3-.2.5-.2.8v.4c0,.3,0,.6.2.8.1.3.3.5.6.6.2.2.5.2.9.2s.6,0,.9-.2c.2-.2.4-.4.6-.6.1-.3.2-.5.2-.8v-.4c0-.3,0-.6-.2-.8ZM-108.3,116c0,.2,0,.4-.2.6-.1.2-.3.3-.6.3s-.5,0-.6-.3c-.1-.2-.2-.4-.2-.6v-.4c0-.2,0-.4.2-.6.1-.2.3-.3.6-.3s.5,0,.6.3c.1.2.2.4.2.6v.4Z"/>
        <path class="cls-1" d="M-104.6,117.6c-.4,0-.7,0-1-.2-.3-.1-.6-.3-.7-.6-.2-.3-.3-.6-.3-1s0-.6.2-.8c.1-.2.3-.4.5-.5.2-.1.5-.2.7-.3s.6-.1.8-.1c.4,0,.7,0,.9-.1.2,0,.4,0,.5-.1.1,0,.2-.2.2-.3h0c0-.4,0-.6-.3-.8-.2-.2-.5-.3-.9-.3s-.7,0-.9.3c-.2.2-.4.4-.5.6l-1.1-.3c.1-.4.3-.7.6-.9.3-.2.5-.4.9-.5.3-.1.7-.2,1-.2s.5,0,.8,0c.3,0,.5.2.8.3s.4.4.6.6c.2.3.2.6.2,1.1v4h-1.1v-.8h0c0,.2-.2.3-.3.4-.2.1-.3.3-.6.4-.2,0-.5.1-.9.1ZM-104.3,116.7c.3,0,.6,0,.8-.2s.4-.3.5-.5c.1-.2.2-.4.2-.7v-.8s-.1,0-.2.1c-.1,0-.3,0-.4,0-.2,0-.3,0-.4,0-.1,0-.3,0-.4,0-.2,0-.4,0-.6.1-.2,0-.3.2-.4.3s-.2.3-.2.5.1.5.3.7.5.2.8.2Z"/>
        <polygon class="cls-1" points="-109.6 109.4 -113.8 117.5 -112.7 117.5 -108.5 109.4 -109.6 109.4"/>
        <path class="cls-1" d="M-98.1,110c-.1-.3-.3-.5-.5-.6-.2-.2-.5-.2-.9-.2s-.6,0-.9.2c-.2.2-.4.4-.6.6-.1.3-.2.5-.2.8v.4c0,.3,0,.6.2.8.1.3.3.5.6.6.2.2.5.2.9.2s.6,0,.9-.2c.2-.2.4-.4.5-.6s.2-.5.2-.8v-.4c0-.3,0-.6-.2-.8ZM-98.8,111.3c0,.2,0,.4-.2.6s-.3.3-.6.3-.5,0-.6-.3-.2-.4-.2-.6v-.4c0-.2,0-.4.2-.6.1-.2.3-.3.6-.3s.5,0,.6.3c.1.2.2.4.2.6v.4Z"/>
        <path class="cls-1" d="M-94,114.6c-.1-.3-.3-.5-.5-.6-.2-.2-.5-.2-.9-.2s-.6,0-.9.2-.4.4-.6.6c-.1.3-.2.5-.2.8v.4c0,.3,0,.6.2.8.1.3.3.5.6.6.2.2.5.2.9.2s.6,0,.9-.2c.2-.2.4-.4.6-.6.1-.3.2-.5.2-.8v-.4c0-.3,0-.6-.2-.8ZM-94.8,115.9c0,.2,0,.4-.2.6-.1.2-.3.3-.6.3s-.5,0-.6-.3c-.1-.2-.2-.4-.2-.6v-.4c0-.2,0-.4.2-.6.1-.2.3-.3.6-.3s.5,0,.6.3c.1.2.2.4.2.6v.4Z"/>
        <polygon class="cls-1" points="-96 109.3 -100.2 117.5 -99.1 117.5 -94.9 109.3 -96 109.3"/>
      </g>
      <rect class="cls-5" x="-114.7" y="53.1" width="22" height="22"/>
      <rect x="-114.6" y="64.9" width="21.9" height="1.1"/>
      <g>
        <path class="cls-1" d="M-108.9,68.8c0-.1-.1-.4-.2-.7-.5.6-1.2.8-1.9.8s-1.2-.2-1.6-.6-.6-.9-.6-1.4.3-1.3.8-1.6c.5-.4,1.3-.6,2.3-.6h1.1v-.5c0-.4-.1-.7-.4-1-.2-.2-.6-.4-1.1-.4s-.8.1-1,.3c-.3.2-.4.5-.4.8h-1.2c0-.3.1-.7.4-1s.6-.6,1-.8c.4-.2.9-.3,1.4-.3.8,0,1.4.2,1.8.6s.7.9.7,1.6v3.1c0,.6,0,1.1.2,1.5h0c0,.1-1.2.1-1.2.1ZM-110.9,67.9c.4,0,.7,0,1-.3.3-.2.6-.4.7-.7v-1.4h-.9c-1.4,0-2.1.4-2.1,1.3s.1.6.4.9c.2.2.6.3.9.3Z"/>
        <path class="cls-1" d="M-101.4,62.8c-.5-.6-1.1-.9-1.9-.9s-1.5.3-1.9.9v-3.6h-1.2v9.6h1.1v-.8c.5.6,1.2.9,2,.9s1.4-.3,1.9-.9c.5-.6.7-1.5.7-2.5h0c0-1.2-.2-2-.7-2.7ZM-102.3,67.3c-.3.4-.7.6-1.3.6s-1.3-.4-1.7-1.1v-2.9c.3-.7.9-1.1,1.7-1.1s1,.2,1.3.6c.3.4.5,1,.5,1.8s-.2,1.5-.5,1.9Z"/>
        <path class="cls-1" d="M-96.7,68c.4,0,.8-.1,1.1-.4.3-.3.5-.6.5-.9h1.1c0,.4-.2.8-.4,1.1-.2.4-.6.6-1,.8-.4.2-.8.3-1.3.3-.9,0-1.7-.3-2.2-.9-.5-.6-.8-1.5-.8-2.5v-.2c0-.7.1-1.3.4-1.8.2-.5.6-.9,1-1.2s1-.4,1.6-.4,1.4.2,1.9.7.8,1,.8,1.8h-1.1c0-.4-.2-.8-.5-1.1-.3-.3-.7-.4-1.1-.4s-1,.2-1.4.6c-.3.4-.5,1-.5,1.8v.2c0,.8.2,1.4.5,1.8.3.4.8.6,1.4.6Z"/>
      </g>
      <rect class="cls-5" x="-40.1" y="49.6" width="22" height="22"/>
      <rect class="cls-5" x="-40.1" y="149.5" width="22" height="22"/>
      <rect class="cls-5" x="-40.1" y="124.7" width="22" height="22"/>
      <rect class="cls-5" x="-40.1" y="24.7" width="22" height="22"/>
      <rect class="cls-5" x="-40.1" y="74.4" width="22" height="22"/>
      <g>
        <path class="cls-1" d="M-34.6,154.8v9.5h-1.3v-8h0l-2,1.5v-1.4l2.1-1.5h1.3Z"/>
        <path class="cls-1" d="M-32.9,164.3v-1l2.9-3.3c.3-.4.6-.7.8-.9.2-.3.4-.5.5-.8s.1-.5.1-.8,0-.6-.2-.8c-.1-.2-.3-.4-.5-.5-.2-.1-.5-.2-.8-.2s-.6,0-.8.2-.4.3-.5.6c-.1.3-.2.5-.2.9h-1.2c0-.6.1-1.1.4-1.5.2-.4.6-.8,1-1,.4-.2.9-.4,1.4-.4s1,.1,1.4.4c.4.2.7.6,1,1,.2.4.3.9.3,1.4s0,.7-.2,1c-.1.3-.3.7-.6,1.1-.3.4-.7.9-1.2,1.5l-1.7,2h0c0,0,3.8,0,3.8,0v1.2h-5.6Z"/>
        <path class="cls-1" d="M-23.4,164.4c-.6,0-1.1-.1-1.5-.3-.4-.2-.8-.5-1.1-.9s-.4-.8-.4-1.4h1.3c0,.3.1.5.3.7.2.2.4.4.6.5.2.1.5.2.8.2s.6,0,.9-.2c.3-.1.5-.3.6-.5s.2-.5.2-.8,0-.6-.2-.8c-.1-.2-.4-.4-.6-.6s-.6-.2-1-.2h-.7v-1.2h.7c.3,0,.6,0,.8-.2.2-.1.4-.3.6-.5.1-.2.2-.5.2-.8s0-.5-.2-.8c-.1-.2-.3-.4-.5-.5s-.5-.2-.8-.2-.5,0-.8.2-.4.3-.6.5c-.1.2-.2.5-.2.7h-1.2c0-.5.1-1,.4-1.3.3-.4.6-.7,1-.9.4-.2.9-.3,1.4-.3s1,.1,1.4.4c.4.2.7.5.9.9.2.4.3.8.3,1.3,0,.5-.1,1-.4,1.3-.3.4-.6.6-1.1.7h0c.6.2,1,.4,1.3.8.3.4.5.9.5,1.5,0,.5-.1,1-.4,1.4-.3.4-.6.7-1.1,1-.5.2-1,.4-1.5.4Z"/>
      </g>
      <polygon class="cls-3" points="-25 30.5 -33.9 35.7 -25 40.8 -24.4 39.7 -31.3 35.7 -24.4 31.6 -25 30.5"/>
      <polygon class="cls-3" points="-33.2 55.7 -33.9 56.8 -27 60.9 -33.9 64.9 -33.2 66 -24.4 60.9 -33.2 55.7"/>
      <path class="cls-3" d="M-25,78.1l-9.4,5.5,9.4,5.5.7-1.2-7.3-4.3,7.3-4.3-.7-1.2ZM-34.4,90.4v1.4h10.4v-1.4h-10.4Z"/>
      <path class="cls-2" d="M-23.6,133.5v2.2h-11.2v-2.2h-1.1v5.6h1.1v-2.2h11.2v2.2h1.1v-5.6h-1.1Z"/>
      <rect class="cls-5" x="-40.1" y=".5" width="22" height="22"/>
      <rect class="cls-5" x="-40.1" y="-24" width="22" height="22"/>
      <rect class="cls-5" x="-40.1" y="173.9" width="22" height="22"/>
      <path class="cls-1" d="M-27.3,4.8l1.7.7-1,2.3h3.8v1.8h-4.5l-1.5,3.6h6.1v1.8h-6.9l-1.3,3.1-1.7-.7,1-2.3h-3.8v-1.8h4.6l1.5-3.6h-6.1v-1.8h6.9l1.3-3.1Z"/>
      <rect x="-35.7" y="-16.8" width="13.1" height="2.2"/>
      <rect x="-35.7" y="-11.4" width="13.1" height="2.2"/>
      <g>
        <polygon points="5.5 5.2 6.7 3.2 16.7 9.1 6.7 14.9 5.5 12.9 12.2 9.1 5.5 5.2"/>
        <rect x="5.4" y="16.3" width="11.2" height="2.3"/>
      </g>
    </g>
  </g>
</svg>