<?xml version="1.0" encoding="UTF-8"?>
<svg xmlns="http://www.w3.org/2000/svg" version="1.1" viewBox="0 0 22 22">
  <!-- Generator: Adobe Illustrator 28.7.1, SVG Export Plug-In . SVG Version: 1.2.0 Build 142)  -->
  <g>
    <g id="Layer_1">
      <g>
        <path d="M3.2,11.4c.3-.2.5-.4.6-.7.1-.3.2-.6.2-.9v-.4c0-.3,0-.6-.2-.9-.1-.3-.3-.5-.6-.7-.3-.2-.6-.2-1-.2s-.7,0-1,.2c-.3.2-.5.4-.6.7-.1.3-.2.6-.2.9v.4c0,.3,0,.6.2.9.1.3.3.5.6.7.3.2.6.2,1,.2s.7,0,1-.2ZM2.9,9.8c0,.2,0,.4-.1.5,0,.1-.2.2-.4.2s-.4,0-.5-.2c0-.2-.1-.3-.1-.5v-.4c0-.2,0-.4.1-.5,0-.1.2-.2.4-.2s.4,0,.4.2c0,.2.1.3.1.6v.4Z"/>
        <path d="M7.9,13.1c-.1-.3-.3-.5-.6-.7-.3-.2-.6-.2-1-.2s-.7,0-1,.2c-.3.2-.5.4-.6.7-.1.3-.2.6-.2.9v.4c0,.3,0,.6.2.9.1.3.3.5.6.7.3.2.6.2,1,.2s.7,0,1-.2c.3-.2.5-.4.6-.7.1-.3.2-.6.2-.9v-.4c0-.3,0-.6-.2-.9h0ZM6.9,14v.4c0,.2,0,.4-.1.6,0,.1-.2.2-.4.2s-.4,0-.5-.2c0-.2-.1-.3-.1-.5v-.4c0-.2,0-.4.1-.5,0-.1.2-.2.4-.2s.4,0,.4.2c0,.2.1.3.1.6Z"/>
        <path d="M13,10.2c-.2-.2-.5-.3-.8-.3-.7-.1-1.3-.1-1.9,0-.3.1-.7.3-.9.5-.3.2-.5.6-.6.9h0c0,.1,1.3.4,1.3.4h0c0-.3.2-.5.4-.6.2-.2.5-.2.9-.2s.6,0,.8.2c.2.2.3.4.3.7s0,.2,0,.2c0,0-.2,0-.4.1-.2,0-.5,0-.9.1-.3,0-.6,0-.9.2-.3,0-.5.2-.8.3-.2.1-.4.3-.6.6-.1.2-.2.5-.2.9s0,.8.3,1.1c.2.3.5.5.8.7.3.1.7.2,1.1.2s.6,0,.9-.2c.3-.1.5-.2.6-.4s.1-.1.2-.2v.6h1.4v-4.1c0-.5,0-.8-.2-1.1-.2-.3-.4-.5-.6-.7ZM12.5,13.2v.6c0,.2,0,.4-.2.6-.1.2-.3.3-.5.5-.2.1-.5.2-.8.2s-.6,0-.7-.2c-.2-.1-.3-.3-.3-.6s0-.3.1-.4c0-.1.2-.2.4-.3.2,0,.4-.1.6-.1h.4c.1,0,.3,0,.4-.1.2,0,.3,0,.4,0,0,0,0,0,0,0Z"/>
        <polygon points="5.7 7.7 1.5 16 1.4 16.1 2.8 16.1 7.1 7.7 5.7 7.7"/>
        <path d="M16.8,11.3c.3-.2.5-.4.6-.7.1-.3.2-.6.2-.9v-.4c0-.3,0-.6-.2-.9-.1-.3-.3-.5-.6-.7-.3-.2-.6-.2-1-.2s-.7,0-1,.2c-.3.2-.5.4-.6.7-.1.3-.2.6-.2.9v.4c0,.3,0,.6.2.9.1.3.3.5.6.7.3.2.6.2,1,.2s.7,0,1-.2ZM15.4,10.3c0-.2-.1-.3-.1-.5v-.4c0-.2,0-.4.1-.5,0-.1.2-.2.4-.2s.4,0,.4.2c0,.2.1.3.1.6v.4c0,.2,0,.4-.1.5,0,.1-.2.2-.4.2s-.4,0-.5-.2Z"/>
        <path d="M21.4,13.1c-.1-.3-.3-.5-.6-.7-.3-.2-.6-.2-1-.2s-.7,0-1,.2c-.3.2-.5.4-.6.7-.1.3-.2.6-.2.9v.4c0,.3,0,.6.2.9.1.3.3.5.6.7.3.2.6.2,1,.2s.7,0,1-.2c.3-.2.5-.4.6-.7.1-.3.2-.6.2-.9v-.4c0-.3,0-.6-.2-.9ZM20.5,14v.4c0,.2,0,.4-.1.6,0,.1-.2.2-.4.2s-.4,0-.5-.2c0-.2-.1-.3-.1-.5v-.4c0-.2,0-.4.1-.5,0-.1.2-.2.4-.2s.4,0,.5.2c0,.2.1.3.1.6Z"/>
        <polygon points="19.2 7.7 14.9 16.1 16.3 16.1 20.7 7.7 19.2 7.7"/>
      </g>
    </g>
  </g>
</svg>